<?xml version="1.0" encoding="utf-8"?>
<!-- Generator: Adobe Illustrator 22.0.1, SVG Export Plug-In . SVG Version: 6.00 Build 0)  -->
<svg version="1.1" id="Layer_1" xmlns="http://www.w3.org/2000/svg" xmlns:xlink="http://www.w3.org/1999/xlink" x="0px" y="0px"
	 viewBox="0 0 300 300" style="enable-background:new 0 0 300 300;" xml:space="preserve">
<style type="text/css">
	.st0{fill:none;}
	.st1{fill:#F3DC1C;}
	.st2{fill:#FFFFFF;}
</style>
<path class="st0" d="M135,236.2c0,8.7-4.3,15.2-14.3,15.2s-13.8-4.7-19.2-14.5l-22.2,13.8c5.7,13.5,21,25.5,42.5,25.5
	c21.5,0,40.5-12,40.5-42s0-96.2,0-96.2H135C135,138,135,227.5,135,236.2z"/>
<path class="st0" d="M242.8,195c-23.2-9.7-29.2-13.2-29.2-22c0-8.8,7.7-13,14.3-13c11.8,0,18,11.7,18,11.7s15.3-10,20.7-13.5
	c-8.3-13.7-17.5-21.2-38.5-21.2s-41,10.7-41,37.7s22.3,35.7,34.2,40.8c11.8,5.2,26.8,10.3,26.8,20.3S239.7,252,229,252
	s-20-5.3-28.5-17.2c-5.2,3-14.8,8.8-21.7,13.2c8,11.8,21.2,28.2,50.7,28.2s46.2-17.3,46.2-40.3C275.7,219.8,266,204.7,242.8,195z"/>
<path class="st1" d="M0,0v34.9c2.2-0.8,4.6-1.1,7-0.6c0.5,0.1,1,0.2,1.5,0.4l0,0c5.7,1.8,9,7.9,9.9,13.6c0.4,1-0.2,3,1.6,2.9
	c4.5,0.6,8.4,3.4,11.4,6.7c3.9,4.3,4.6,10.5,3.7,15.9c-0.6,3.7-1.1,7.6-2.8,11c-0.4,1.3-2,1.1-2.5,0.1c-2.2-3.5-1-8-2.8-11.7
	c-0.4-1-1.9-0.7-2,0.3c-0.6,2.8,2,5.4,1.3,8.2c-0.5,1.1-2,0.4-2.3-0.5c-1.3-2.5-1.9-5.5-4-7.6c-0.9-1-2.7,0.2-2,1.4
	c1.7,2.6,4.1,4.9,4.9,8c0.3,0.8-0.5,2.2-1.5,1.5c-1.5-1.2-3.1-2.6-5.1-2.8c-1,0.1-0.8,1.5-0.2,1.9c2.1,1.7,4.3,3.2,5.9,5.4
	c0.8,1,0.7,3.1-0.9,3.1c-1.1-0.1-2.2-0.5-3.2-0.9c-5-2.7-10.3-4.9-16-5.3c-0.6,0-1.2,0-1.9,0.1v3.3c1.5,0.2,3,0.4,4.4,0.7
	c1,0.2,2.1,0.5,3.1,0.8v0c3.6,1.1,7.1,2.8,9.7,5.6c2.1,2.4,4.1,4.9,5.5,7.7c0.5,1,0.6,2.5-0.6,3c-2.8,0.9-5.2-2.3-8-1.3
	c-0.8,0.3-1.7,1.7-0.8,2.3c1.8,0.9,4,0.1,5.7,1.3c0.7,0.4,0.5,1.5-0.2,1.8c-3.1,2-7.2,1.3-10.3,3.4c-1.4,1.4,0.9,3,2.2,2.1
	c3.2-1.7,6.9-2.9,10.5-2.6c0.8,0,1.8,0.4,1.6,1.4c-0.8,3.4-4.2,5.6-4.7,9.1c-0.2,1.1,1.1,2.6,2.1,1.6c2.1-1.8,2.3-5,4.3-6.9
	c0.9-1.2,3.1-0.2,3.1,1.2c0.7,4.1-2,7.9-1.6,12c0.3,1.7,2.8,1,3-0.5c1.5-4.5,0.3-9.4,2-13.8c0.4-1.5,1.2-3.9,3.2-3.8
	c3.4,0.7,5.8,3.5,8.2,5.9c6.1,6.6,5.9,16.9,2.5,24.7c-2.2,4.6-7.1,7.2-12.1,7.5c-1.1,0.2-2.7-0.4-3.2,1c-1.6,3.5-3.8,7.1-7.4,8.6
	c-4.7,1.7-9.3-1.3-12.7-4.3c-0.9-0.7-1.7-2.1-3-1.6c-2.1,0.5-4.3,0.9-6.4,0.9V300h300V0H0z M30.6,50.7c-2.5-1.6-5.1-3.3-6.9-5.8
	c-3.5-4.5-4-11.3-0.9-16.1c2.3-3.4,6.4-4.8,10.2-5.9c1.7-3.5,3.7-7.2,7.4-9.1c4.3-2.2,9.3-0.3,13,2.2c0.6,0.3,1.4,1.4,2.2,0.7
	c2.9-2.2,6.5-4.1,10.2-3.4c0.4,0.1,0.9,0.2,1.3,0.3c3,0.9,5.6,3.2,6.9,6c1.7,3.8,1,8.2-0.2,12.1c-0.2,0.5-0.4,1.3,0.3,1.5
	c3.3,1,6.8,2.9,8.2,6.2c1.4,3.4,0.4,7.2-0.8,10.5c-1.3,4-4.1,7.9-8.2,9.4c-3.6,1.4-7.2,2.8-10.5,4.9c-1.4,0.9-2.8,2.1-4.6,2.1
	c-0.6,0.1-1.2-0.4-1.2-1c0.5-3.4,3.5-5.8,4.1-9.2c0.2-1-1.1-1.7-1.8-0.9c-1.9,1.8-1.4,5.2-3.6,6.8c-1,0.7-2.1-0.5-1.9-1.5
	c0.5-3.5,2.4-6.8,2.3-10.5c0-0.8-0.2-1.9-1.2-2.1c-1,0-1.6,1-2,1.8c-2,4.1-0.8,8.9-2.3,13.2c-0.2,0.8-1.2,1-1.7,0.4
	c-1.1-2.5,0.7-5.3-0.3-7.8c-0.3-0.7-1.4-0.6-1.7,0c-1,1.8-0.5,3.8-0.5,5.8c-0.1,4.8-1.2,9.7-3.2,14.1c-0.6,1.6-3.2,3.7-4.4,1.5
	c-1.6-4.6-0.1-9.5-0.7-14.2C37.6,57.9,34.7,53.4,30.6,50.7z M42.4,111.1c-5.1,3.8-13.6,0.5-14.6-5.8c-1.1-4.2,0.4-8.6,3-11.9
	c2.5-3.5,5.8-6.5,9.1-9.3c7.1-5.8,14.6-11.2,22.9-15.1c5.9-2.6,11.9-4.9,18-6.8c3.4-1.1,7.1-1.7,10.2-3.6c1.4-0.8,0.6-3.1-0.8-3.5
	c-2.2,0.4-4.7-0.7-5.1-3c-0.6-2.7,2.1-5.7,4.9-4.6c2,0.3,3.4,2.5,2.9,4.4c-1.4,2.8,2.6,4.1,4.7,3.8c3.7,0,4.9-6.3,1.1-7.2
	c-2.5,0.1-5.6-2-4.6-4.8c0.4-3.4,5.4-4,7.1-1.3c1.1,1.3,0.4,3,0.2,4.5c0.4,3,4.9,3.6,6.6,1.4c0.6-0.8,1.5-1.7,1.4-2.7
	c-1.6-1.2-3.6-2.4-4-4.6c-0.5-2.7,1-6.2,3.9-6.8c0.8-0.2,1.6,0.1,2.4-0.2c0-0.9-0.7-1.6-0.8-2.5c-0.8-3.4,2.2-6.7,5.4-7.2
	c2.4-0.2,4.2,1.8,5.3,3.6c0.2,0.4,0.8,1.2,1.2,0.6c1.5-1.4,3.4-3,5.6-2.8c0.4,0,0.7,0.1,1,0.2c2.4,0.7,4.4,3,3.9,5.6
	c-0.1,1.9-1.4,3.5-2,5.3c2.1,0.9,4.6,1.9,5.3,4.3c0.4,2.5-0.5,5.4-2.8,6.7c-1.6,0.8-3.4,0.4-5.1,0c-0.8-0.1-0.5,1-0.6,1.5
	c-0.5,4.7-6.5,6.6-10.4,4.8c-1.9-0.9-2.6-3.1-3.6-4.6c-2.5,0.6-5.5,2-6.2,4.8c-0.3,1.6,1.1,2.8,2.4,3.4c1.4,0.9,2.7-1,4.2-0.4
	c2.8,0.2,4.3,3.6,3,5.9c-1,2.4-4.6,2.7-6.3,0.8c-1.5-1.2-0.8-3.4-2.2-4.6c-1.7-2.4-5.2-2.8-7.7-1.4c-1.1,0.7-2.3,1.9-1.9,3.3
	c0.8,1.1,2,2.2,3.3,2.4c1.7-1.4,4.2-1.3,5.7,0.2c2.1,2,0.9,6.3-2.1,6.7c-1.3,0.2-2.6-0.3-3.6-1.1c-1.4-1.2-0.9-3.5-2.5-4.6
	c-1.4-1.1-2.9-3-4.9-2.3c-13.1,3.7-26.7,8.7-35.9,19.1c-4.3,4.8-8.5,10.2-9.9,16.7C48.5,103.2,46.4,108.1,42.4,111.1z M75.4,96.5
	c-3.7-1.9-7.9,0.5-11.7-0.4c-1.3-0.1-0.9-1.7,0.1-2c4.3-2.3,9.4-3.3,14.3-2.5c1.6,0.1,3.5,0.6,5-0.3c0.7-0.7-0.1-1.7-0.8-1.9
	c-3.9-1.6-8.4-0.9-12.2,0.7c-2.3,0.9-4.7,2.2-7.2,2c-1.1,0-1.7-1.3-1-2.2c2.3-2.6,6.1-3.1,8.4-5.6c0.4-0.4,0.3-1.3-0.5-1.2
	c-2.6,0.2-4.4,2.8-7.1,2.9c-0.8,0.1-1.2-0.9-0.7-1.4c0.8-1.4,2.2-2.4,3.4-3.5c4.6-3.7,9.4-7.4,15-9.4c5.8-2.1,12.2-2.5,18.2-0.9
	c0.4,0.1,0.9,0.2,1.3,0.3h0c4,1.2,7.6,3.6,10.6,6.5c0.8,0.8,1.9,0.5,2.9,0.5c4.3,0.2,9.3,0.6,12.3,4.1c2.4,2.8,2.2,6.9,1.2,10.3
	c-0.3,1.5-1.4,3.1-0.6,4.6c1.6,4.6,3,10,0.6,14.6c-1.8,3.3-5.7,4.2-9,4.8c-0.9,3-0.9,6.5-3.2,9c-2.6,3.2-7.3,3.7-11,2.6
	c-4.3-2.1-6.8-6.5-8.8-10.7c-3.4-6.2-9.9-9.8-16.3-12.2c-4-1.5-8.2-2.9-12.6-2.8c-2.8,0.2-5.5,2.2-8.4,1c-0.9-0.5-0.2-1.6,0.5-2
	c3.5-2,7.6-3.3,11.7-3.3c2-0.1,4,0.7,6,0.3C76.8,98.1,76.1,96.8,75.4,96.5z M67.8,176.6c-2.3-2.4-3.9-5.4-5.3-8.4
	c-0.8-0.8-1.9,0.2-2.8,0.3c-3.5,1.1-8.1,0.7-10.2-2.8c-4-6.6-2.6-15-0.1-21.9c2-5,3.8-10.5,2.9-16c-0.6-3.1-3.3-5.8-2.9-9.2
	c0.2-1.4,1.9-0.9,2.8-0.4c3.7,2.1,6.3,5.8,8.1,9.6c0.8,1.2,2.1,3.4,3.8,2.4c0.7-2.2-1.8-3.8-2.4-5.7c-0.4-0.5-0.7-2.1,0.4-2
	c2,0.8,3.1,3.1,5.2,3.5c0.6,0.1,0.7-0.8,0.5-1.2c-1.4-2.7-4.5-3.9-6.1-6.4c-0.4-0.6,0-1.5,0.8-1.4c2.4-0.2,4,2.1,6.3,2.4
	c1.1,0,1.1-1.6,0.3-2.1c-3-2.8-7.3-3.7-11.4-3.8c-2.6,0.1-2.1-3.1-0.3-3.9c4.9-4,11.6-3.1,17.3-1.4c1.2,0.3,2.3,0.6,3.5,1
	c4.2,1.3,8.2,3.1,11.1,6.6c4.1,4.7,5.7,10.9,6.3,17c0,1.2,1.4,1.4,2.1,2c3.4,2.2,7.1,5.2,7.7,9.5c0.5,4.2-2.1,8-4.9,10.9
	c-1,0.8,0,2,0.2,3c1.9,5.5-0.9,11.9-5.7,14.9c-3.3,2.1-7.5,1.2-10.8-0.6c-0.7-0.6-1.2,0.1-1.6,0.6c-2,2.6-4.4,5.2-7.7,6.2
	C72.4,179.8,69.6,178.5,67.8,176.6z M162.3,234.2c0,30-19,42-40.5,42c-21.5,0-36.8-12-42.5-25.5l22.2-13.8
	c5.3,9.8,9.2,14.5,19.2,14.5s14.3-6.5,14.3-15.2c0-8.7,0-98.2,0-98.2h27.3C162.3,138,162.3,204.2,162.3,234.2z M229.5,276.2
	c-29.5,0-42.7-16.3-50.7-28.2c6.8-4.3,16.5-10.2,21.7-13.2C209,246.7,218.3,252,229,252s19.2-6.2,19.2-16.2s-15-15.2-26.8-20.3
	c-11.8-5.2-34.2-13.8-34.2-40.8s20-37.7,41-37.7s30.2,7.5,38.5,21.2c-5.3,3.5-20.7,13.5-20.7,13.5s-6.2-11.7-18-11.7
	c-6.7,0-14.3,4.2-14.3,13c0,8.8,6,12.3,29.2,22c23.2,9.7,32.8,24.8,32.8,40.8C275.7,258.8,259,276.2,229.5,276.2z"/>
<path class="st1" d="M125.3,40.5c0.9-2-0.4-4.6-2.4-5.3c-0.3-0.1-0.6-0.2-0.9-0.2c-3.4-0.4-5.8,4-3.4,6.5
	C120.2,44,124.4,43.3,125.3,40.5z"/>
<path class="st2" d="M38.7,77c1.2,2.2,3.8,0.2,4.4-1.5c2-4.4,3.1-9.3,3.2-14.1c0.1-1.9-0.4-4,0.5-5.8c0.3-0.6,1.4-0.8,1.7,0
	c1,2.5-0.8,5.3,0.3,7.8c0.5,0.6,1.5,0.3,1.7-0.4C52.1,58.8,51,54,53,49.8c0.4-0.8,1-1.8,2-1.8c1,0.1,1.2,1.3,1.2,2.1
	c0.1,3.6-1.8,6.9-2.3,10.5c-0.2,1,0.9,2.2,1.9,1.5c2.2-1.6,1.7-5,3.6-6.8c0.7-0.8,2-0.1,1.8,0.9c-0.6,3.4-3.6,5.7-4.1,9.2
	c0,0.6,0.6,1.1,1.2,1c1.7-0.1,3.2-1.2,4.6-2.1c3.3-2,6.9-3.5,10.5-4.9c4.1-1.6,6.9-5.4,8.2-9.4c1.2-3.3,2.2-7.1,0.8-10.5
	c-1.4-3.4-4.9-5.3-8.2-6.2c-0.6-0.2-0.5-1-0.3-1.5c1.2-3.9,1.9-8.2,0.2-12.1c-1.3-2.9-3.9-5.1-6.9-6c-0.4-0.1-0.9-0.2-1.3-0.3
	c-3.8-0.7-7.3,1.2-10.2,3.4c-0.8,0.6-1.5-0.4-2.2-0.7c-3.7-2.5-8.7-4.4-13-2.2c-3.6,1.9-5.6,5.6-7.4,9.1c-3.8,1.1-7.9,2.5-10.2,5.9
	c-3.1,4.8-2.6,11.6,0.9,16.1c1.8,2.5,4.4,4.2,6.9,5.8c4.1,2.7,7,7.2,7.4,12.1C38.6,67.5,37.1,72.4,38.7,77z"/>
<path class="st2" d="M59.5,81.7c9.2-10.5,22.8-15.5,35.9-19.1c2-0.7,3.5,1.2,4.9,2.3c1.6,1.1,1.1,3.4,2.5,4.6c1,0.8,2.3,1.2,3.6,1.1
	c2.9-0.4,4.2-4.7,2.1-6.7c-1.5-1.5-4.1-1.6-5.7-0.2c-1.4-0.2-2.6-1.2-3.3-2.4c-0.4-1.4,0.7-2.7,1.9-3.3c2.5-1.4,6-1,7.7,1.4
	c1.4,1.2,0.7,3.5,2.2,4.6c1.7,1.8,5.2,1.6,6.3-0.8c1.4-2.3-0.2-5.7-3-5.9c-1.5-0.6-2.7,1.3-4.2,0.4c-1.3-0.6-2.7-1.8-2.4-3.4
	c0.7-2.7,3.7-4.1,6.2-4.8c1.1,1.6,1.7,3.7,3.6,4.6c3.8,1.8,9.9-0.2,10.4-4.8c0.2-0.5-0.2-1.6,0.6-1.5c1.7,0.3,3.5,0.8,5.1,0
	c2.2-1.3,3.2-4.2,2.8-6.7c-0.6-2.5-3.2-3.4-5.3-4.3c0.6-1.8,1.9-3.3,2-5.3c0.5-2.6-1.5-4.9-3.9-5.6c-0.3-0.1-0.7-0.2-1-0.2
	c-2.2-0.2-4.1,1.3-5.6,2.8c-0.5,0.6-1-0.2-1.2-0.6c-1.1-1.9-2.9-3.8-5.3-3.6c-3.2,0.5-6.2,3.8-5.4,7.2c0.1,0.9,0.8,1.6,0.8,2.5
	c-0.7,0.3-1.6,0-2.4,0.2c-2.9,0.6-4.4,4-3.9,6.8c0.4,2.1,2.3,3.4,4,4.6c0.1,1-0.8,1.9-1.4,2.7c-1.7,2.2-6.2,1.6-6.6-1.4
	c0.2-1.5,0.9-3.2-0.2-4.5c-1.7-2.8-6.6-2.1-7.1,1.3c-1,2.8,2.1,4.9,4.6,4.8c3.8,0.9,2.6,7.2-1.1,7.2c-2.1,0.4-6.1-1-4.7-3.8
	c0.5-1.9-0.9-4.1-2.9-4.4c-2.7-1.1-5.5,1.9-4.9,4.6c0.4,2.3,3,3.5,5.1,3c1.3,0.4,2.2,2.7,0.8,3.5c-3.1,1.9-6.8,2.5-10.2,3.6
	c-6.1,2-12.2,4.2-18,6.8c-8.3,4-15.8,9.4-22.9,15.1c-3.3,2.8-6.6,5.7-9.1,9.3c-2.6,3.3-4.1,7.8-3,11.9c1.1,6.3,9.6,9.6,14.6,5.8
	c4-3,6.1-7.9,7.2-12.7C50.9,92,55.2,86.6,59.5,81.7z M121.9,35c0.3,0,0.6,0.1,0.9,0.2l0,0l0,0c2.1,0.7,3.3,3.2,2.4,5.3
	c-0.9,2.8-5.1,3.5-6.8,1.1C116.2,39.1,118.5,34.6,121.9,35z"/>
<path class="st2" d="M17.9,91.3c1,0.4,2.1,0.8,3.2,0.9c1.6,0,1.8-2.2,0.9-3.1c-1.6-2.2-3.8-3.8-5.9-5.4c-0.7-0.5-0.9-1.9,0.2-1.9
	c2,0.2,3.6,1.6,5.1,2.8c1,0.7,1.7-0.7,1.5-1.5c-0.7-3.1-3.2-5.4-4.9-8c-0.7-1.2,1.1-2.4,2-1.4c2.1,2.1,2.7,5,4,7.6
	c0.3,0.9,1.8,1.6,2.3,0.5c0.7-2.8-1.9-5.4-1.3-8.2c0-1,1.5-1.3,2-0.3c1.8,3.6,0.6,8.2,2.8,11.7c0.6,1,2.2,1.2,2.5-0.1
	c1.7-3.4,2.1-7.3,2.8-11c0.9-5.5,0.2-11.7-3.7-15.9c-3-3.3-6.9-6.1-11.4-6.7c-1.7,0.1-1.2-1.9-1.6-2.9c-0.9-5.7-4.2-11.8-9.9-13.6
	l0,0c-0.5-0.2-1-0.3-1.5-0.4c-2.4-0.5-4.8-0.2-7,0.6v51.2c0.6,0,1.2-0.1,1.9-0.1C7.5,86.4,12.9,88.7,17.9,91.3z"/>
<path class="st2" d="M75.7,98.4c-2,0.5-4-0.3-6-0.3c-4.1,0-8.2,1.3-11.7,3.3c-0.7,0.4-1.4,1.5-0.5,2c2.8,1.2,5.5-0.8,8.4-1
	c4.4-0.2,8.6,1.2,12.6,2.8c6.4,2.4,12.9,6,16.3,12.2c2,4.2,4.5,8.6,8.8,10.7c3.7,1,8.4,0.5,11-2.6c2.3-2.5,2.3-6,3.2-9
	c3.3-0.6,7.2-1.5,9-4.8c2.4-4.6,1-10-0.6-14.6c-0.8-1.5,0.3-3.1,0.6-4.6c1-3.3,1.2-7.4-1.2-10.3c-3-3.4-8-3.9-12.3-4.1
	c-1-0.1-2.1,0.3-2.9-0.5c-2.9-3-6.6-5.3-10.6-6.5h0c-0.4-0.1-0.8-0.2-1.3-0.3c-6-1.6-12.4-1.2-18.2,0.9c-5.6,1.9-10.4,5.7-15,9.4
	c-1.2,1.1-2.6,2.1-3.4,3.5c-0.5,0.6,0,1.5,0.7,1.4c2.7-0.2,4.5-2.7,7.1-2.9c0.7-0.1,0.9,0.8,0.5,1.2c-2.3,2.5-6.1,3-8.4,5.6
	c-0.7,0.8-0.1,2.2,1,2.2c2.5,0.3,4.9-1.1,7.2-2c3.8-1.5,8.3-2.2,12.2-0.7c0.8,0.3,1.5,1.2,0.8,1.9c-1.5,0.9-3.3,0.4-5,0.3
	c-4.9-0.8-10,0.2-14.3,2.5c-1,0.3-1.4,1.9-0.1,2c3.8,0.9,8-1.4,11.7,0.4C76.1,96.8,76.8,98.1,75.7,98.4z"/>
<path class="st2" d="M82.7,172.9c0.3-0.5,0.9-1.2,1.6-0.6c3.2,1.8,7.5,2.7,10.8,0.6c4.8-3.1,7.6-9.4,5.7-14.9
	c-0.2-0.9-1.2-2.1-0.2-3c2.8-2.9,5.4-6.7,4.9-10.9c-0.6-4.3-4.3-7.3-7.7-9.5c-0.7-0.6-2.1-0.8-2.1-2c-0.6-6.1-2.3-12.3-6.3-17
	c-2.8-3.4-6.9-5.3-11.1-6.6c-1.2-0.4-2.3-0.7-3.5-1c-5.6-1.7-12.3-2.6-17.3,1.4c-1.8,0.8-2.3,4,0.3,3.9c4,0,8.3,1,11.4,3.8
	c0.7,0.5,0.7,2.1-0.3,2.1c-2.3-0.3-3.9-2.6-6.3-2.4c-0.8-0.1-1.2,0.9-0.8,1.4c1.6,2.5,4.6,3.8,6.1,6.4c0.2,0.4,0.1,1.3-0.5,1.2
	c-2.2-0.4-3.2-2.8-5.2-3.5c-1.1-0.1-0.8,1.4-0.4,2c0.6,2,3.2,3.5,2.4,5.7c-1.7,1-3.1-1.1-3.8-2.4c-1.7-3.8-4.3-7.5-8.1-9.6
	c-0.8-0.5-2.6-0.9-2.8,0.4c-0.4,3.3,2.3,6,2.9,9.2c0.9,5.5-0.9,11-2.9,16c-2.5,6.9-3.9,15.3,0.1,21.9c2.1,3.4,6.6,3.9,10.2,2.8
	c0.9-0.1,2-1.1,2.8-0.3c1.4,3,3,6,5.3,8.4c1.8,1.9,4.6,3.3,7.2,2.5C78.3,178.2,80.7,175.5,82.7,172.9z"/>
<path class="st2" d="M6.4,156.4c1.3-0.5,2.1,1,3,1.6c3.4,3,8.1,6,12.7,4.3c3.7-1.5,5.9-5.1,7.4-8.6c0.5-1.4,2.1-0.8,3.2-1
	c5-0.3,9.9-2.9,12.1-7.5c3.4-7.8,3.6-18.1-2.5-24.7c-2.4-2.4-4.8-5.2-8.2-5.9c-2-0.2-2.8,2.3-3.2,3.8c-1.7,4.5-0.5,9.4-2,13.8
	c-0.2,1.5-2.7,2.2-3,0.5c-0.4-4.1,2.3-7.9,1.6-12c-0.1-1.4-2.2-2.4-3.1-1.2c-2.1,1.9-2.3,5-4.3,6.9c-1,0.9-2.3-0.6-2.1-1.6
	c0.5-3.5,3.8-5.8,4.7-9.1c0.2-0.9-0.8-1.4-1.6-1.4c-3.7-0.3-7.3,0.9-10.5,2.6c-1.3,0.9-3.6-0.7-2.2-2.1c3.1-2.1,7.2-1.4,10.3-3.4
	c0.7-0.3,0.9-1.4,0.2-1.8c-1.7-1.2-3.9-0.4-5.7-1.3c-0.9-0.7,0-2,0.8-2.3c2.8-0.9,5.2,2.2,8,1.3c1.2-0.5,1.1-2,0.6-3
	c-1.4-2.9-3.4-5.4-5.5-7.7c-2.6-2.8-6-4.5-9.7-5.6v0c-1-0.3-2-0.6-3.1-0.8C3,89.9,1.5,89.6,0,89.4v67.8
	C2.2,157.3,4.4,156.9,6.4,156.4z"/>
</svg>
